<svg width="150" height="150" viewBox="0 0 150 150" fill="none" xmlns="http://www.w3.org/2000/svg">
<path d="M137.5 81.25C137.5 88.1875 131.938 93.75 125 93.75H25C21.6848 93.75 18.5054 92.433 16.1612 90.0888C13.817 87.7446 12.5 84.5652 12.5 81.25C12.5 77.9348 13.817 74.7554 16.1612 72.4112C18.5054 70.067 21.6848 68.75 25 68.75H81.25L96.875 81.25L112.5 68.75H125C128.315 68.75 131.495 70.067 133.839 72.4112C136.183 74.7554 137.5 77.9348 137.5 81.25ZM75 18.75C18.75 18.75 18.75 56.25 18.75 56.25H131.25C131.25 56.25 131.25 18.75 75 18.75ZM18.75 112.5C18.75 122.875 27.125 131.25 37.5 131.25H112.5C122.875 131.25 131.25 122.875 131.25 112.5V106.25H18.75V112.5Z" fill="#232323"/>
</svg>
