<svg width="70" height="56" viewBox="0 0 70 56" fill="none" xmlns="http://www.w3.org/2000/svg">
<path d="M38 38.1391V39.1946C38 40.0691 37.2911 40.778 36.4167 40.778H35.8889L34.1662 52.8369C33.9433 54.3969 32.6072 55.5557 31.0314 55.5557H6.96865C5.39277 55.5557 4.0567 54.3969 3.83378 52.8369L2.11111 40.778H1.58333C0.708872 40.778 0 40.0691 0 39.1946V38.1391C0 37.2646 0.708872 36.5557 1.58333 36.5557H6.02597L13.0705 26.8696C13.7563 25.9268 15.0765 25.7182 16.0195 26.404C16.9624 27.0898 17.1709 28.4101 16.4851 29.353L11.2467 36.5557H26.7533L21.5149 29.353C20.8291 28.4101 21.0376 27.0897 21.9806 26.4039C22.9234 25.7182 24.2438 25.9266 24.9296 26.8696L31.974 36.5557H36.4167C37.2911 36.5557 38 37.2646 38 38.1391ZM20.5833 49.7502V42.3613C20.5833 41.4868 19.8745 40.778 19 40.778C18.1255 40.778 17.4167 41.4868 17.4167 42.3613V49.7502C17.4167 50.6246 18.1255 51.3335 19 51.3335C19.8745 51.3335 20.5833 50.6246 20.5833 49.7502ZM27.9722 49.7502V42.3613C27.9722 41.4868 27.2634 40.778 26.3889 40.778C25.5144 40.778 24.8056 41.4868 24.8056 42.3613V49.7502C24.8056 50.6246 25.5144 51.3335 26.3889 51.3335C27.2634 51.3335 27.9722 50.6246 27.9722 49.7502ZM13.1944 49.7502V42.3613C13.1944 41.4868 12.4856 40.778 11.6111 40.778C10.7366 40.778 10.0278 41.4868 10.0278 42.3613V49.7502C10.0278 50.6246 10.7366 51.3335 11.6111 51.3335C12.4856 51.3335 13.1944 50.6246 13.1944 49.7502Z" fill="#232323"/>
<rect x="34" width="36" height="30" rx="15" fill="#FE8C01"/>
<path d="M48.24 9.8V21H46.656V11.192H44.128V9.8H48.24ZM58.5619 19.608V21H50.5139V19.912L55.0739 15.512C55.6285 14.9787 56.0019 14.52 56.1939 14.136C56.3859 13.7413 56.4819 13.3467 56.4819 12.952C56.4819 12.3653 56.2739 11.912 55.8579 11.592C55.4525 11.2613 54.8659 11.096 54.0979 11.096C52.8605 11.096 51.9059 11.5013 51.2339 12.312L50.1459 11.368C50.5832 10.8347 51.1539 10.4187 51.8579 10.12C52.5725 9.82133 53.3672 9.672 54.2419 9.672C55.4152 9.672 56.3485 9.95467 57.0419 10.52C57.7352 11.0747 58.0819 11.832 58.0819 12.792C58.0819 13.3893 57.9539 13.9547 57.6979 14.488C57.4419 15.0213 56.9565 15.6293 56.2419 16.312L52.8179 19.608H58.5619Z" fill="white"/>
</svg>
