<svg width="150" height="150" viewBox="0 0 150 150" fill="none" xmlns="http://www.w3.org/2000/svg">
<path d="M128.062 16.419C128.164 17.0264 128.144 17.6477 128.005 18.2475C127.866 18.8473 127.61 19.4139 127.252 19.9148C126.894 20.4156 126.44 20.8411 125.918 21.1667C125.395 21.4924 124.814 21.7119 124.206 21.8127L89.8938 27.5315L89.1563 31.2502H114.062C115.306 31.2502 116.498 31.7441 117.377 32.6232C118.256 33.5023 118.75 34.6945 118.75 35.9377V60.9377C118.749 66.0541 116.818 70.9817 113.342 74.7359C109.866 78.4901 105.101 80.7942 100 81.1877V84.3752C100 96.5815 91.25 106.744 79.6875 108.938V128.125H95.3125C96.5557 128.125 97.748 128.619 98.6271 129.498C99.5061 130.377 100 131.57 100 132.813C100 134.056 99.5061 135.248 98.6271 136.127C97.748 137.006 96.5557 137.5 95.3125 137.5H54.6875C53.4443 137.5 52.252 137.006 51.3729 136.127C50.4939 135.248 50 134.056 50 132.813C50 131.57 50.4939 130.377 51.3729 129.498C52.252 128.619 53.4443 128.125 54.6875 128.125H70.3125V108.938C64.5981 107.846 59.4434 104.795 55.7358 100.312C52.0282 95.8288 49.9998 90.193 50 84.3752V81.1877C44.8988 80.7942 40.1341 78.4901 36.658 74.7359C33.1819 70.9817 31.2506 66.0541 31.25 60.9377V35.9377C31.25 34.6945 31.7439 33.5023 32.6229 32.6232C33.502 31.7441 34.6943 31.2502 35.9375 31.2502H79.5937L81.3438 22.519C81.5299 21.5861 81.9955 20.7318 82.6787 20.0698C83.3619 19.4078 84.2304 18.9694 85.1688 18.8127L122.669 12.5627C123.276 12.4617 123.897 12.4812 124.497 12.6203C125.097 12.7594 125.664 13.0154 126.165 13.3735C126.665 13.7316 127.091 14.1849 127.416 14.7074C127.742 15.23 127.962 15.8116 128.062 16.419ZM74.9062 54.6877L77.7188 40.6252H40.625V54.6877H74.9062ZM109.375 54.6877V40.6252H87.2812L84.4688 54.6877H109.375Z" fill="#232323"/>
</svg>
