<svg width="150" height="150" viewBox="0 0 150 150" fill="none" xmlns="http://www.w3.org/2000/svg">
<path d="M31.2688 29.125C31.2688 19.775 38.9625 11.6 48.9 12.5812C81.2578 15.7869 111.236 31.0126 132.913 55.25C139.6 62.7062 137.519 73.775 129.919 79.2812L127.275 81.2L125.006 77.825L124.956 77.7562C105.019 50.2125 72.5813 32.2875 35.9563 32.2875H31.2688V29.125ZM117.319 83.1875L119.681 86.7062L95.0125 104.612L93.75 105.55V118.687C93.75 120.345 93.0915 121.935 91.9194 123.107C90.7473 124.279 89.1576 124.937 87.5 124.937C85.8424 124.937 84.2527 124.279 83.0806 123.107C81.9085 121.935 81.25 120.345 81.25 118.687V118.312C81.15 117.526 80.7547 116.807 80.1442 116.301C79.5337 115.795 78.7536 115.539 77.962 115.587C77.1705 115.635 76.4267 115.982 75.8813 116.557C75.3359 117.133 75.0298 117.895 75.025 118.687V128.069C75.0252 129.672 74.409 131.215 73.304 132.377C72.1989 133.539 70.6895 134.231 69.0879 134.312C67.4863 134.392 65.9152 133.854 64.6995 132.808C63.4837 131.762 62.7164 130.289 62.5563 128.694L53.5563 135.194C44.25 141.906 31.2438 135.262 31.25 123.781L31.2688 41.6562H35.9563C69.4188 41.6562 99.0563 58.0125 117.319 83.1875ZM56.275 68.6875C57.9326 68.6875 59.5223 68.029 60.6944 66.8569C61.8665 65.6848 62.525 64.0951 62.525 62.4375C62.525 60.7799 61.8665 59.1902 60.6944 58.0181C59.5223 56.846 57.9326 56.1875 56.275 56.1875C54.6174 56.1875 53.0277 56.846 51.8556 58.0181C50.6835 59.1902 50.025 60.7799 50.025 62.4375C50.025 64.0951 50.6835 65.6848 51.8556 66.8569C53.0277 68.029 54.6174 68.6875 56.275 68.6875ZM81.275 87.425C82.9326 87.425 84.5223 86.7665 85.6944 85.5944C86.8665 84.4223 87.525 82.8326 87.525 81.175C87.525 79.5174 86.8665 77.9277 85.6944 76.7556C84.5223 75.5835 82.9326 74.925 81.275 74.925C79.6174 74.925 78.0277 75.5835 76.8556 76.7556C75.6835 77.9277 75.025 79.5174 75.025 81.175C75.025 82.8326 75.6835 84.4223 76.8556 85.5944C78.0277 86.7665 79.6174 87.425 81.275 87.425ZM56.275 106.162C57.9326 106.162 59.5223 105.504 60.6944 104.332C61.8665 103.16 62.525 101.57 62.525 99.9125C62.525 98.2549 61.8665 96.6652 60.6944 95.4931C59.5223 94.321 57.9326 93.6625 56.275 93.6625C54.6174 93.6625 53.0277 94.321 51.8556 95.4931C50.6835 96.6652 50.025 98.2549 50.025 99.9125C50.025 101.57 50.6835 103.16 51.8556 104.332C53.0277 105.504 54.6174 106.162 56.275 106.162Z" fill="#232323"/>
</svg>
