<svg width="160" height="160" viewBox="0 0 160 160" fill="none" xmlns="http://www.w3.org/2000/svg">
<path d="M5 83.0005C5 116 38.5 155 80 155C121.5 155 155 116 155 83.0005H5Z" fill="white"/>
<path d="M155 82.9995C155 104.25 121.5 121.5 80 121.5C38.5 121.5 5 104.25 5 82.9995C5 61.7495 38.5 44.4995 80 44.4995C121.5 44.4995 155 61.7495 155 82.9995Z" fill="#E8E8E8"/>
<path d="M80.0001 116.5C42.0001 116.5 9.75006 101 9.75006 82.7502C9.75006 64.5002 42.0001 49.0002 80.0001 49.0002C118 49.0002 150.25 64.5002 150.25 82.7502C150.25 101.25 118 116.5 80.0001 116.5Z" fill="white"/>
<path d="M31.25 40.9998C31.5 45.2498 33.5 59.4998 31.75 65.9998C42.75 67.9998 34.5 46.7498 31.25 40.9998Z" fill="#E8E8E8"/>
<path d="M139 69.2503C144 57.7503 136.25 45.7503 131.25 52.7503C126.25 59.7503 130 64.2503 117.25 61.7503C114.5 57.0003 121.25 42.5003 117.25 39.7503C110.75 35.5003 110.75 51.5003 103.25 42.2503C95.75 33.2503 95.5 54.5003 84.25 54.5003C78.75 54.5003 86.5 38.0003 74 34.7503C61.5 31.5003 65 45.7503 50 37.5003C35 29.2503 27.25 41.7503 34.25 47.0003C41 52.2503 35.5 62.7503 34.5 66.7503C26 62.7503 26.5 80.0003 26.75 82.7503C20.75 84.7503 11 89.0003 10.75 89.2503C17 104.25 46 116.5 80 116.5C118 116.5 150.25 101 150.25 82.7503C150.25 64.2503 130.75 88.0003 139 69.2503Z" fill="#E8E8E8"/>
<path d="M95.7501 89.9998C102 76.7498 86.7501 82.2498 81.0001 87.9998C80.7501 78.4998 85.7501 72.4998 90.0001 65.9998C83.0001 70.9998 75.5001 76.7498 67.2501 79.7498C72.0001 85.2498 74.5001 92.7498 75.5001 99.9998C95.5001 102 91.0001 111.5 90.0001 116.25C113.75 114.5 89.7501 103 95.7501 89.9998Z" fill="#E8E8E8"/>
<path d="M43.25 57.0004C39.25 61.0004 38 66.0004 40.5 68.5004C42.75 71.0004 47.75 69.7504 51.75 65.7504C55.75 61.7504 57 56.7504 54.5 54.2504C52 52.0004 47 53.2504 43.25 57.0004Z" fill="#E8E8E8"/>
<path d="M95.9999 104.001C91.9999 108.001 90.7499 113.001 93.2499 115.501C95.4999 118.001 100.5 116.751 104.5 112.751C108.5 108.751 109.75 103.751 107.25 101.251C105 98.7507 99.9999 100.001 95.9999 104.001Z" fill="#E8E8E8"/>
<path d="M65.2499 50C55.4999 50.5 50.9999 75.75 43.9999 74.25C49.7499 79.75 52.7499 88 52.7499 96C54.2499 96.25 56.4999 92 57.7499 96.5C55.9999 82.75 56.4999 67.75 65.2499 50Z" fill="#E8E8E8"/>
<path d="M106 58.25C108.5 63.25 108.25 68.5 105.25 70C102.25 71.5 98.0001 69 95.2501 64C92.7501 59 93.0001 53.75 96.0001 52.25C99.0001 50.75 103.5 53.25 106 58.25Z" fill="#E8E8E8"/>
<path d="M125.25 62.4997C104 59.9997 100.75 59.4997 118.5 77.2497C123.25 83.2497 105.25 95.9997 98.75 97.2497C107 113 108.5 114.5 120 110.5C136 105 128 86.2497 135.5 90.2497C131.5 84.2497 109 81.4997 125.25 62.4997Z" fill="#E8E8E8"/>
<path d="M138.25 75.2496C137.75 72.4996 143.75 66.2496 142.5 57.4996C141.25 49.4996 132 44.7496 129.25 53.9996C126.75 62.4996 118.75 60.4996 118.75 60.4996C124 39.9996 121.25 29.9996 109.75 42.2496C103.75 48.4996 109.25 20.9996 90.25 50.2496C80.5 65.2496 84.5 15.9996 67 33.9996C53 48.2496 42.25 20.4996 33 37.2496C28.25 45.9996 38.5 47.2496 35.75 64.2496C35.75 64.2496 25.25 57.7496 26.25 79.2496C26.5 82.9996 7.75003 83.7496 12 89.9996C16.25 88.2496 43 75.4996 41.5 87.2496C41 90.7496 38.75 102 45 101.5C51.75 101 58 90.4996 58.25 102.5C58.5 111.75 63 112.25 69.5 106.5C71.25 105 72.5 102.5 75 101.5C79.5 99.7496 83.75 102.25 88 103.75C96 106.75 93.75 95.4996 88.25 93.4996C87.25 93.2496 81 92.2496 81.5 91.2496C82.5 88.2496 86 86.2496 88.5 84.9996C90.75 83.9996 93.25 83.2496 95.75 83.2496C99.25 83.4996 98 85.7496 97.25 88.4996C96.5 91.7496 97 95.9996 100.5 96.9996C104.5 98.2496 107.75 94.4996 110.5 92.2496C112.5 90.4996 125.75 81.9996 121.25 90.9996C118.5 96.2496 105.25 97.9996 111.25 105.75C115.25 110.75 120.75 108.5 123.75 103.75C126.25 99.9996 127.25 95.4996 128.25 90.9996C129 87.4996 129.25 85.4996 132.75 87.2496C137.5 89.7496 143.5 95.2496 143.75 86.2496C144 80.2496 146.25 69.2496 151.5 79.7496C148.25 65.9996 138.75 78.9996 138.25 75.2496ZM105.75 92.2496C105.5 92.4996 99.25 96.9996 98.25 92.7496C97.5 89.4996 100.75 85.7496 98.75 82.9996C95.25 78.2496 86 82.7496 82.5 85.2496C80.5 86.7496 75.5 91.4996 79.25 93.7496C82 95.4996 86.25 94.4996 88.75 96.9996C90.75 98.9996 91.25 102.75 87.75 101.25C83.25 99.4996 78.75 97.2496 73.75 99.2496C71 100.25 64.25 110.25 61 108.25C59.25 107.25 60 100.25 59.75 98.2496C59 92.4996 55 93.4996 51.25 95.7496C49.75 96.7496 45.25 99.9996 43.5 98.7496C41.75 97.4996 42.75 91.9996 43 90.2496C44.25 79.4996 37.25 78.4996 28.25 80.9996C28.25 77.7496 28 64.7496 34 66.9996C37.5 68.2496 46.5 79.2496 49.75 72.9996C53.25 66.2496 68.75 36.4996 68.75 58.7496C68.75 64.7496 63.5 77.4996 67.75 80.4996C71.5 82.9996 81 72.4996 83.5 70.9996C89.75 66.7496 96.75 62.7496 100 72.2496C102.25 78.4996 102.75 86.7496 110.5 88.4996C108.5 89.7496 107 90.9996 105.75 92.2496ZM117.75 81.7496C117 86.2496 111.75 87.2496 108.25 85.2496C101 80.9996 105 66.2496 96 63.9996C85.25 61.2496 71.25 79.9996 69.25 77.9996C66.75 75.2496 72 63.7496 71.25 56.2496C69 36.9996 54 55.7496 48 71.2496C46.75 74.2496 37.5 66.2496 37.5 66.2496C42.25 45.7496 31 45.9996 34.5 39.4996C41.75 24.9996 52.5 52.9996 67.25 37.7496C83.25 21.4996 77.25 74.2496 92.25 51.9996C106 31.7496 103.75 48.4996 106.75 47.4996C112 45.7496 121 28.4996 116.25 60.2496C86.5 54.7496 119.25 72.9996 117.75 81.7496ZM139.75 89.4996C136 88.7496 132 82.2496 127.5 84.4996C123.75 86.2496 123.5 96.2496 122 99.7496C120.25 104 114.5 109.25 111 103C110.25 101.5 121 94.7496 122.25 91.7496C124.75 85.9996 119.5 85.4996 120 81.7496C121.75 70.2496 94.25 58.7496 119 62.9996C133 65.4996 129.75 48.2496 136.25 51.9996C148.75 59.4996 127 78.2496 141 78.4996C140 82.2496 140.5 85.9996 139.75 89.4996Z" fill="white"/>
<path d="M21.5 86.4999C25.5 90.2499 26.75 95.5 24.25 98C22 100.5 17 99.25 13 95.25C9.00002 91.2499 7.75002 86.25 10.25 83.7499C12.75 81.4999 17.75 82.7499 21.5 86.4999Z" fill="#E8E8E8"/>
</svg>
